<svg xmlns="http://www.w3.org/2000/svg" width="640" height="420" viewBox="0 0 640 420" fill="none">
  <defs>
    <linearGradient id="bg" x1="40" y1="30" x2="620" y2="390" gradientUnits="userSpaceOnUse">
      <stop stop-color="#1C64F2" stop-opacity="0.18" />
      <stop offset="1" stop-color="#10B981" stop-opacity="0.2" />
    </linearGradient>
    <linearGradient id="chip" x1="0" y1="0" x2="1" y2="1">
      <stop stop-color="#0f172a" stop-opacity="0.9" />
      <stop offset="1" stop-color="#1c64f2" stop-opacity="0.85" />
    </linearGradient>
    <filter id="shadow" x="-20" y="-20" width="680" height="460" color-interpolation-filters="sRGB">
      <feDropShadow dx="0" dy="10" stdDeviation="18" flood-color="#0f172a" flood-opacity="0.18" />
    </filter>
  </defs>

  <rect x="20" y="20" width="600" height="380" rx="28" fill="url(#bg)" />
  <rect x="40" y="48" width="560" height="324" rx="22" fill="#fff" filter="url(#shadow)" />

  <rect x="72" y="96" width="220" height="176" rx="18" fill="#0f172a" opacity="0.9" />
  <rect x="92" y="116" width="180" height="136" rx="12" fill="url(#chip)" />
  <rect x="112" y="136" width="60" height="12" rx="6" fill="#e0ebff" />
  <rect x="112" y="160" width="116" height="12" rx="6" fill="#93c5fd" />
  <rect x="112" y="184" width="132" height="12" rx="6" fill="#fff" opacity="0.7" />
  <rect x="112" y="208" width="96" height="12" rx="6" fill="#c7d2fe" />
  <rect x="112" y="232" width="72" height="12" rx="6" fill="#bae6fd" />

  <rect x="348" y="120" width="220" height="168" rx="20" fill="#111827" opacity="0.92" />
  <rect x="368" y="142" width="180" height="124" rx="14" fill="#111827" stroke="#1c64f2" stroke-width="3" />
  <rect x="388" y="166" width="140" height="16" rx="8" fill="#1c64f2" />
  <rect x="388" y="196" width="140" height="52" rx="10" fill="#0f172a" stroke="#10b981" stroke-width="2" />
  <rect x="406" y="210" width="72" height="12" rx="6" fill="#10b981" opacity="0.7" />
  <rect x="406" y="230" width="52" height="10" rx="5" fill="#6ee7b7" opacity="0.9" />
  <rect x="470" y="210" width="40" height="30" rx="8" fill="#1c64f2" opacity="0.85" />

  <circle cx="210" cy="304" r="9" fill="#10b981" />
  <circle cx="430" cy="304" r="9" fill="#1c64f2" />
  <path d="M219 304H421" stroke="#0f172a" stroke-width="3" stroke-linecap="round" stroke-dasharray="8 8" />

  <text x="88" y="330" font-family="Inter, system-ui, -apple-system, 'Segoe UI', sans-serif" font-size="18" font-weight="700" fill="#0f172a">VMs</text>
  <text x="492" y="330" font-family="Inter, system-ui, -apple-system, 'Segoe UI', sans-serif" font-size="18" font-weight="700" fill="#0f172a">DB</text>
  <text x="210" y="78" font-family="Inter, system-ui, -apple-system, 'Segoe UI', sans-serif" font-size="22" font-weight="800" fill="#0f172a">Island VM &amp; Database</text>
</svg>
